<svg width="42" height="42" viewBox="0 0 42 42" fill="#4b3d37" xmlns="http://www.w3.org/2000/svg">
<path d="M33.6001 0H8.39993C6.17278 0.00246088 4.03769 0.888054 2.46304 2.46304C0.888035 4.03769 0.00243001 6.17278 0 8.39993V33.6001C0.00246088 35.8272 0.888054 37.9623 2.46304 39.537C4.03769 41.112 6.17278 41.9976 8.39993 42H33.6001C35.8272 41.9979 37.9623 41.1119 39.5373 39.5373C41.112 37.9623 41.9979 35.8272 42 33.6001V8.39993C41.9979 6.17278 41.1119 4.03769 39.5373 2.46268C37.9623 0.888035 35.8272 0.00207001 33.6001 0ZM37.8002 33.5999C37.7988 34.7133 37.3558 35.781 36.5686 36.5685C35.7811 37.3556 34.7135 37.7986 33.6001 37.8H8.39993C7.28653 37.799 6.21886 37.356 5.43135 36.5685C4.64385 35.7809 4.20086 34.7133 4.19978 33.5999V8.39975C4.20084 7.28635 4.64381 6.21868 5.43135 5.43117C6.21889 4.64367 7.28653 4.20068 8.39993 4.1996H33.6001C34.7135 4.20101 35.7811 4.64398 36.5686 5.43117C37.3558 6.21868 37.7988 7.28635 37.8002 8.39975V33.5999Z" fill="#4b3d37"/>
<path d="M21 11.6309C18.5151 11.6309 16.1322 12.6185 14.3755 14.3756C12.6187 16.1327 11.6319 18.5156 11.6323 21.0005C11.6323 23.4853 12.6195 25.8682 14.3766 27.6249C16.1336 29.3817 18.5166 30.3689 21.0014 30.3685C23.4862 30.3685 25.8692 29.3813 27.6259 27.6246C29.383 25.8675 30.3698 23.4846 30.3698 20.9997C30.367 18.5155 29.3791 16.1341 27.6224 14.3777C25.8657 12.6212 23.4842 11.6334 21 11.6309V11.6309ZM21 26.1687C19.6293 26.1684 18.3147 25.6235 17.3455 24.6542C16.3762 23.6846 15.832 22.3697 15.832 20.999C15.8324 19.6283 16.377 18.3134 17.3466 17.3445C18.3159 16.3752 19.6307 15.8307 21.0014 15.8307C22.3721 15.8311 23.687 16.3757 24.6562 17.3449C25.6255 18.3141 26.17 19.629 26.17 20.9997C26.1686 22.3704 25.6234 23.6843 24.6541 24.6536C23.6848 25.6225 22.3707 26.1674 20.9999 26.1688L21 26.1687Z" fill="#4b3d37"/>
</svg>
