<svg width="42" height="42" viewBox="0 0 42 42" fill="#4b3d37" xmlns="http://www.w3.org/2000/svg">
<path d="M40.4029 15.397C38.5234 8.19226 32.7283 2.39715 25.4458 0.595525C18.1632 -1.2061 10.2532 1.14371 5.2412 6.78219C-0.945466 13.6737 -1.72859 24.0109 3.28339 31.8421C2.89183 34.6613 2.57858 37.4806 2.18702 40.2998C2.0304 41.3179 3.28339 42.0227 4.14483 41.7878C6.88576 41.0046 9.705 40.2998 12.4459 39.5167C19.8856 42.5709 28.5004 41.1613 34.4521 35.6794C40.0123 30.5891 42.2833 22.6017 40.4038 15.397H40.4029ZM34.9211 30.5117C30.2224 37.4032 20.9815 39.9879 13.3857 36.5417H13.3074C12.9941 36.3851 12.6025 36.3068 12.1327 36.3851C9.93993 37.0116 7.74719 37.5598 5.55445 38.1863C5.78939 36.3068 6.02432 34.5056 6.25926 32.6261C6.33757 31.9996 6.49419 31.2948 6.18095 30.6683C5.94601 30.2768 5.63276 29.8852 5.39782 29.4153C4.84964 28.4756 4.37977 27.4575 3.9882 26.4395C2.73521 22.8371 2.6569 18.8432 3.83158 15.2413C5.8677 8.89796 11.6628 4.12092 18.241 3.3378C25.0542 2.39805 31.8674 5.68716 35.391 11.404C38.9933 17.2774 38.7584 24.7949 34.9211 30.5121V30.5117Z" fill="#4b3d37"/>
<path d="M31.3966 23.1504L27.8725 20.4094C26.7761 19.548 25.2882 19.7046 24.3485 20.6444L23.3304 21.6624C22.5473 21.1925 21.8425 20.6444 21.1377 20.0179C20.5112 19.3914 19.963 18.6082 19.4931 17.8251L20.5112 16.8071C21.4509 15.8673 21.5292 14.3794 20.7461 13.283L18.0052 9.68065C17.457 8.89753 16.5956 8.42765 15.6558 8.42765C14.7161 8.34934 13.7763 8.7409 13.1498 9.3674L10.0956 12.4216C8.37277 14.1444 7.98121 16.8071 9.07758 18.9998C10.5655 21.819 12.445 24.325 14.6378 26.5178C16.8305 28.7105 19.4148 30.59 22.1557 32.0779C23.0172 32.5478 23.8786 32.7044 24.74 32.7044C26.1496 32.7044 27.6376 32.1563 28.6556 31.0599L31.7098 28.0057C32.3363 27.3792 32.7279 26.4395 32.6496 25.4997C32.6496 24.56 32.1797 23.6985 31.3966 23.1504ZM29.5171 25.813L26.4629 28.8671C25.6798 29.6503 24.5051 29.8069 23.5653 29.337C21.0594 28.0057 18.7883 26.3612 16.7522 24.325C14.7161 22.2889 13.0715 20.0179 11.7402 17.5119C11.2703 16.5721 11.4269 15.3974 12.2101 14.6143L15.2642 11.5601H15.3426C15.4209 11.5601 15.4209 11.5601 15.4209 11.6385L17.9269 14.9276L16.9088 15.8673C16.1257 16.6504 15.8907 17.9034 16.4389 18.9215C17.0654 20.1745 17.9269 21.2709 18.8666 22.2106C19.8064 23.1504 20.9027 24.0118 22.1557 24.6383C23.1738 25.1865 24.3485 24.9515 25.1316 24.1684L26.228 23.072L29.4388 25.578C29.4388 25.578 29.5171 25.578 29.5171 25.6563V25.813Z" fill="#4b3d37"/>
</svg>
