<svg width="42" height="42" viewBox="0 0 42 42" fill="#4b3d37" xmlns="http://www.w3.org/2000/svg">
<path fill-rule="evenodd" clip-rule="evenodd" d="M15.8666 22.8667C11.6667 21.0002 9.79983 20.0665 9.79983 20.0665C24.7332 14.4666 32.1998 11.1998 32.1998 11.1998C29.3997 24.2665 28 30.7998 28 30.7998C21.9333 26.1332 19.1333 24.2667 19.1333 24.2667C25.2001 18.1999 28 15.4 28 15.4C20.0668 20.5335 15.8667 22.8668 15.8667 22.8668L15.8666 22.8667ZM10.2667 0H31.7333C37.3332 0 42 4.66667 42 10.2667V31.7333C42 37.3332 37.3333 42 31.7333 42H10.2667C4.66675 42 0 37.3333 0 31.7333V10.2667C0 4.66675 4.66667 0 10.2667 0ZM11.6668 2.33333H30.3334C35.4669 2.33333 39.6668 6.53317 39.6668 11.6667V30.3333C39.6668 35.4668 35.4669 39.6667 30.3334 39.6667H11.6668C6.53325 39.6667 2.33342 35.4668 2.33342 30.3333V11.6667C2.33342 6.53317 6.53325 2.33333 11.6668 2.33333Z" fill="#4b3d37"/>
</svg>
